
	<svg xmlns="http://www.w3.org/2000/svg" xmlns:xlink="http://www.w3.org/1999/xlink" version="1.1" width="128" height="128" viewBox="0 0 100 100">


		<defs>
			<g id="background">
<path fill="url(#background-gradient)" stroke="none" d=" M 100 100 L 100 0 0 0 0 100 100 100 Z"/>
</g><g id="middle-1">
<path fill="#FFFFFF" stroke="none" d=" M 89.3 10.6 L 89.3 10.55 10.55 10.55 10.55 89.25 10.65 89.25 89.3 89.25 89.3 10.6 Z"/>

<path fill="#000000" fill-opacity="0.4" stroke="none" d=" M 99.95 21.9 L 89.3 10.6 89.3 89.25 10.65 89.25 10.55 89.3 21.25 99.85 99.95 100 99.95 21.9 Z"/>
</g><mask id="mask">
<path fill="#FFFFFF" stroke="none" d=" M 89.4 89.35 L 89.4 10.65 10.65 10.65 10.65 89.35 89.4 89.35 Z"/>
</mask>
			
	<linearGradient id="background-gradient" x1="0" y1="0" y2="1" x2="0" >
		<stop stop-color="#142ccc" offset="0%"/>
		<stop stop-color="#02bbf7" offset="100%"/>
	</linearGradient>

			
			
			<svg xmlns="http://www.w3.org/2000/svg" id="picture" viewBox="0 -0.09999999403953552 30.099998474121094 25.100000381469727" width="100" height="100">
    <style>
        .st0{fill:#333333;}
    </style>
    <path class="st0" d="M21 13c-.6 0-1 .4-1 1v9H2V5h18v.5c0 .6.4 1 1 1s1-.4 1-1V4c0-.6-.4-1-1-1H1c-.6 0-1 .4-1 1v20c0 .6.4 1 1 1h20c.6 0 1-.4 1-1V14c0-.6-.4-1-1-1z"/>
    <path class="st0" d="M29.7.3c-.4-.4-1-.3-1.4.1L11.7 18.5l-7-7.8c-.4-.4-1-.4-1.4-.1-.4.4-.4 1-.1 1.4l7.7 8.6c.2.2.5.3.7.3.3 0 .5-.1.7-.3l17.3-19c.5-.3.5-1 .1-1.3z"/>
</svg>
			
		</defs>

		

			<use xlink:href="#background" fill="url(#background-gradient)" />

		<use xlink:href="#middle-1" />

			<g mask="url(#mask)">
				<g transform="
				        translate(
                                50 50
)
                            translate(5 0)  scale(0.5)  
                            translate(
                                -50 -50
)">
						<use xlink:href="#picture"   />
				</g>
			</g>

		



	</svg>
